PathFileType	4	(x/y/z)	S08_BK_Cal_T01
DataRate	CameraRate	NumFrames	NumMarkers	Units	OrigDataRate	OrigDataStartFrame	OrigNumFrames
240	240	10	51	mm	240	901	2400
Frame#	Time	Sternum			R.Acromium			L.Acromium			Top.Head			R.ASIS			L.ASIS			R.PSIS			L.PSIS			R.Great.Tro			L.Great.Tro			R.Iliac.Crest			L.Iliac.Crest			V.Sacral			R.Thigh.Upper.Post			R.Thigh.Lower.Ant			R.Thigh.Lower.Post			R.Thigh.Upper.Ant			R.Knee.Lat			R.Knee.Med			R.Shank.Upper.Post			R.Shank.Lower.Ant			R.Shank.Lower.Post			R.Shank.Upper.Ant			R.Ankle.Lat			R.Ankle.Med			R.Heel.Upper			R.Heel.Med			R.Heel.Lat			R.Toe.Lat			R.Toe.Med			R.Toe.Tip			L.Thigh.Upper.Post			L.Thigh.Lower.Ant			L.Thigh.Lower.Post			L.Thigh.Upper.Ant			L.Knee.Lat			L.Knee.Med			L.Shank.Upper.Post			L.Shank.Lower.Ant			L.Shank.Lower.Post			L.Shank.Upper.Ant			L.Ankle.Lat			L.Ankle.Med			L.Heel.Upper			L.Heel.Med			L.Heel.Lat			L.Toe.Lat			L.Toe.Med			L.Toe.Tip			Cervical.Spine			Back			
		X1	Y1	Z1	X2	Y2	Z2	X3	Y3	Z3	X4	Y4	Z4	X5	Y5	Z5	X6	Y6	Z6	X7	Y7	Z7	X8	Y8	Z8	X9	Y9	Z9	X10	Y10	Z10	X11	Y11	Z11	X12	Y12	Z12	X13	Y13	Z13	X14	Y14	Z14	X15	Y15	Z15	X16	Y16	Z16	X17	Y17	Z17	X18	Y18	Z18	X19	Y19	Z19	X20	Y20	Z20	X21	Y21	Z21	X22	Y22	Z22	X23	Y23	Z23	X24	Y24	Z24	X25	Y25	Z25	X26	Y26	Z26	X27	Y27	Z27	X28	Y28	Z28	X29	Y29	Z29	X30	Y30	Z30	X31	Y31	Z31	X32	Y32	Z32	X33	Y33	Z33	X34	Y34	Z34	X35	Y35	Z35	X36	Y36	Z36	X37	Y37	Z37	X38	Y38	Z38	X39	Y39	Z39	X40	Y40	Z40	X41	Y41	Z41	X42	Y42	Z42	X43	Y43	Z43	X44	Y44	Z44	X45	Y45	Z45	X46	Y46	Z46	X47	Y47	Z47	X48	Y48	Z48	X49	Y49	Z49	X50	Y50	Z50	X51	Y51	Z51	

901	3.75	495.9	1160.4	319.31	406.37	1418.5	486.24	407.39	1439.1	151.96	412.66	1736.8	336.18	412.5	945.99	431.15	422.66	943.97	198.29	225.25	1023.2	349.4	235.37	1025.7	255.61	326.89	874.04	504.62	316.17	876.92	122.37	337.84	1039.4	471.34	360.3	1046.7	169.51	203.52	989.21	299.6	376.75	679.75	517.79	487.69	614.57	506.86	417.76	597.86	508.19	452.94	703.1	514.51	489.14	512.65	508.6	475.41	497.75	382.96	396.99	346.11	527.92	443.49	270.23	515.4	379.86	271.62	528.9	461.43	346.5	519.37	340.92	104.11	510.64	374.15	110.72	431.46	291.25	65.382	463.27	305.73	38.984	437.39	294.38	41.332	498.6	466.4	32.716	557.34	491.19	45.313	440.61	553.26	62.203	490.75	374.26	673.07	106.78	489.66	620.85	107.97	424.66	596.62	111.19	442.77	696.87	99.37	478.08	508.81	110.87	494.27	494.93	231.52	390.76	350.03	96.852	437.54	248.39	104.64	372.13	278.27	106.43	450.72	323.48	96.52	350.81	105.41	101.92	379.72	101.74	186.34	294.88	75.119	150.09	311.9	41.689	179.37	300.9	47.898	116.72	474.67	39.858	68.063	501.84	45.464	180.43	561.36	62.454	127.24	344.51	1479.7	309.65	264.82	1210.4	322.52
902	3.7542	495.89	1160.4	319.31	406.36	1418.5	486.23	407.38	1439.1	151.96	412.62	1736.8	336.2	412.49	945.98	431.15	422.67	943.96	198.3	225.25	1023.2	349.38	235.37	1025.7	255.6	326.89	874.04	504.62	316.19	876.9	122.36	337.84	1039.4	471.33	360.31	1046.7	169.51	203.52	989.19	299.58	376.76	679.74	517.78	487.7	614.57	506.85	417.77	597.85	508.18	452.95	703.09	514.5	489.16	512.65	508.59	475.42	497.74	382.95	397	346.11	527.91	443.5	270.22	515.39	379.87	271.62	528.89	461.44	346.5	519.36	340.93	104.12	510.63	374.15	110.72	431.46	291.25	65.383	463.26	305.73	38.983	437.39	294.38	41.334	498.6	466.41	32.713	557.33	491.19	45.308	440.61	553.26	62.198	490.75	374.28	673.06	106.77	489.69	620.84	107.98	424.69	596.61	111.19	442.8	696.86	99.371	478.11	508.8	110.87	494.29	494.92	231.53	390.78	350.03	96.854	437.55	248.38	104.64	372.15	278.27	106.43	450.74	323.47	96.524	350.81	105.41	101.92	379.73	101.74	186.34	294.88	75.122	150.08	311.9	41.69	179.37	300.9	47.899	116.72	474.67	39.856	68.063	501.84	45.458	180.43	561.37	62.445	127.25	344.49	1479.7	309.65	264.81	1210.4	322.51
903	3.7583	495.89	1160.4	319.31	406.34	1418.5	486.23	407.37	1439.1	151.95	412.58	1736.8	336.22	412.49	945.97	431.15	422.68	943.94	198.3	225.24	1023.2	349.37	235.37	1025.7	255.58	326.88	874.03	504.62	316.2	876.88	122.35	337.83	1039.4	471.31	360.32	1046.7	169.51	203.52	989.17	299.57	376.77	679.73	517.77	487.71	614.56	506.84	417.78	597.84	508.16	452.95	703.08	514.48	489.17	512.65	508.58	475.43	497.74	382.94	397.01	346.11	527.9	443.51	270.22	515.39	379.88	271.62	528.88	461.46	346.5	519.35	340.93	104.12	510.63	374.15	110.71	431.45	291.25	65.384	463.26	305.73	38.981	437.38	294.38	41.335	498.6	466.41	32.71	557.33	491.19	45.304	440.6	553.26	62.192	490.75	374.31	673.05	106.77	489.71	620.83	107.98	424.72	596.6	111.19	442.84	696.85	99.371	478.14	508.79	110.88	494.31	494.91	231.54	390.8	350.02	96.856	437.56	248.38	104.64	372.16	278.27	106.43	450.75	323.46	96.529	350.82	105.41	101.92	379.73	101.74	186.34	294.88	75.125	150.08	311.9	41.692	179.37	300.9	47.899	116.72	474.67	39.855	68.062	501.84	45.452	180.43	561.37	62.436	127.25	344.48	1479.6	309.64	264.8	1210.3	322.5
904	3.7625	495.88	1160.3	319.31	406.33	1418.5	486.23	407.36	1439.1	151.95	412.54	1736.7	336.23	412.49	945.95	431.15	422.68	943.93	198.3	225.24	1023.2	349.35	235.38	1025.6	255.56	326.88	874.02	504.61	316.22	876.87	122.34	337.83	1039.4	471.3	360.33	1046.7	169.5	203.52	989.14	299.55	376.78	679.72	517.75	487.72	614.55	506.82	417.79	597.83	508.15	452.96	703.08	514.47	489.19	512.64	508.57	475.44	497.73	382.92	397.02	346.11	527.89	443.52	270.22	515.38	379.89	271.62	528.87	461.47	346.49	519.35	340.93	104.12	510.62	374.15	110.71	431.45	291.26	65.385	463.26	305.73	38.98	437.38	294.39	41.337	498.6	466.42	32.707	557.32	491.19	45.299	440.6	553.26	62.187	490.75	374.34	673.04	106.76	489.74	620.81	107.99	424.75	596.59	111.19	442.86	696.83	99.37	478.16	508.78	110.88	494.33	494.9	231.54	390.82	350.02	96.858	437.58	248.37	104.64	372.18	278.27	106.43	450.77	323.46	96.533	350.82	105.41	101.92	379.73	101.74	186.35	294.89	75.128	150.08	311.9	41.693	179.37	300.9	47.899	116.72	474.67	39.853	68.062	501.84	45.446	180.44	561.37	62.427	127.25	344.47	1479.6	309.63	264.78	1210.3	322.5
905	3.7667	495.87	1160.3	319.31	406.31	1418.5	486.22	407.36	1439.1	151.94	412.51	1736.7	336.25	412.49	945.94	431.15	422.69	943.92	198.3	225.24	1023.2	349.34	235.38	1025.6	255.54	326.88	874.01	504.6	316.24	876.85	122.33	337.82	1039.4	471.29	360.34	1046.7	169.5	203.52	989.12	299.54	376.79	679.7	517.74	487.73	614.55	506.81	417.81	597.82	508.14	452.97	703.07	514.46	489.2	512.64	508.56	475.46	497.72	382.91	397.03	346.11	527.88	443.53	270.22	515.37	379.89	271.62	528.87	461.48	346.49	519.34	340.93	104.12	510.61	374.16	110.71	431.44	291.26	65.386	463.26	305.73	38.979	437.38	294.39	41.339	498.6	466.42	32.704	557.32	491.2	45.294	440.6	553.26	62.181	490.75	374.36	673.03	106.76	489.76	620.8	108	424.78	596.58	111.19	442.89	696.82	99.369	478.18	508.77	110.89	494.34	494.9	231.55	390.83	350.01	96.86	437.59	248.36	104.64	372.19	278.27	106.43	450.79	323.45	96.538	350.82	105.42	101.92	379.73	101.74	186.35	294.89	75.131	150.08	311.9	41.694	179.37	300.9	47.9	116.72	474.68	39.852	68.062	501.84	45.441	180.44	561.37	62.419	127.25	344.45	1479.6	309.62	264.77	1210.3	322.49
906	3.7708	495.87	1160.3	319.31	406.3	1418.5	486.22	407.35	1439.1	151.93	412.48	1736.7	336.26	412.48	945.93	431.14	422.69	943.91	198.3	225.23	1023.1	349.32	235.38	1025.6	255.52	326.88	874	504.6	316.25	876.84	122.32	337.82	1039.4	471.29	360.35	1046.7	169.5	203.52	989.11	299.53	376.8	679.69	517.72	487.74	614.54	506.8	417.82	597.81	508.13	452.98	703.06	514.44	489.22	512.64	508.55	475.47	497.71	382.9	397.05	346.11	527.87	443.54	270.22	515.37	379.9	271.62	528.86	461.49	346.49	519.33	340.94	104.12	510.61	374.16	110.71	431.44	291.26	65.387	463.26	305.73	38.978	437.38	294.39	41.342	498.59	466.43	32.702	557.32	491.2	45.29	440.6	553.27	62.175	490.75	374.38	673.02	106.75	489.78	620.79	108	424.8	596.57	111.19	442.91	696.81	99.368	478.21	508.77	110.89	494.35	494.89	231.55	390.85	350.01	96.862	437.6	248.36	104.65	372.21	278.27	106.42	450.8	323.44	96.542	350.82	105.42	101.92	379.74	101.74	186.35	294.89	75.134	150.08	311.9	41.695	179.37	300.9	47.9	116.72	474.68	39.851	68.062	501.85	45.436	180.44	561.38	62.412	127.25	344.44	1479.6	309.61	264.75	1210.3	322.48
907	3.775	495.86	1160.3	319.32	406.29	1418.5	486.21	407.34	1439.1	151.93	412.44	1736.7	336.28	412.48	945.92	431.14	422.7	943.9	198.29	225.23	1023.1	349.31	235.38	1025.6	255.5	326.88	873.99	504.59	316.26	876.83	122.31	337.81	1039.4	471.28	360.36	1046.7	169.5	203.52	989.09	299.51	376.81	679.68	517.71	487.75	614.53	506.79	417.83	597.81	508.11	452.98	703.05	514.43	489.23	512.64	508.54	475.48	497.71	382.88	397.06	346.11	527.86	443.55	270.22	515.36	379.91	271.62	528.85	461.51	346.49	519.32	340.94	104.12	510.6	374.16	110.71	431.44	291.26	65.388	463.26	305.73	38.978	437.38	294.39	41.344	498.59	466.43	32.701	557.32	491.2	45.286	440.6	553.27	62.168	490.75	374.39	673.01	106.75	489.8	620.78	108	424.81	596.56	111.19	442.93	696.8	99.365	478.22	508.76	110.9	494.36	494.88	231.56	390.87	350.01	96.863	437.62	248.36	104.65	372.22	278.27	106.42	450.81	323.44	96.546	350.83	105.42	101.92	379.74	101.74	186.35	294.9	75.137	150.08	311.9	41.695	179.37	300.9	47.901	116.72	474.68	39.851	68.062	501.85	45.431	180.44	561.38	62.405	127.26	344.43	1479.6	309.6	264.74	1210.3	322.47
908	3.7792	495.86	1160.3	319.32	406.27	1418.5	486.21	407.34	1439	151.92	412.41	1736.7	336.29	412.48	945.91	431.13	422.7	943.89	198.29	225.22	1023.1	349.29	235.38	1025.6	255.49	326.87	873.98	504.58	316.27	876.82	122.3	337.81	1039.4	471.27	360.37	1046.7	169.5	203.52	989.07	299.5	376.82	679.67	517.7	487.76	614.53	506.78	417.85	597.8	508.1	452.99	703.05	514.41	489.25	512.63	508.53	475.5	497.7	382.87	397.07	346.11	527.85	443.56	270.22	515.36	379.92	271.62	528.84	461.52	346.49	519.32	340.94	104.12	510.6	374.16	110.71	431.43	291.26	65.39	463.26	305.74	38.978	437.38	294.39	41.347	498.59	466.43	32.7	557.32	491.2	45.282	440.6	553.27	62.162	490.75	374.41	673	106.74	489.81	620.77	108.01	424.83	596.56	111.19	442.95	696.78	99.362	478.24	508.75	110.9	494.37	494.88	231.57	390.88	350.01	96.864	437.63	248.35	104.65	372.23	278.26	106.42	450.83	323.44	96.55	350.83	105.42	101.92	379.74	101.74	186.35	294.9	75.139	150.07	311.9	41.696	179.37	300.9	47.901	116.72	474.68	39.85	68.062	501.85	45.427	180.44	561.38	62.399	127.26	344.42	1479.6	309.59	264.73	1210.3	322.46
909	3.7833	495.85	1160.3	319.32	406.26	1418.4	486.2	407.33	1439	151.91	412.39	1736.7	336.3	412.48	945.9	431.12	422.71	943.89	198.28	225.22	1023.1	349.28	235.38	1025.6	255.47	326.87	873.97	504.57	316.28	876.81	122.29	337.81	1039.4	471.26	360.38	1046.7	169.49	203.52	989.06	299.48	376.83	679.67	517.68	487.77	614.52	506.76	417.86	597.8	508.09	453	703.05	514.4	489.26	512.63	508.52	475.51	497.69	382.86	397.08	346.11	527.85	443.57	270.22	515.36	379.93	271.63	528.84	461.53	346.49	519.31	340.95	104.13	510.59	374.16	110.71	431.43	291.27	65.391	463.26	305.74	38.978	437.38	294.39	41.35	498.59	466.43	32.7	557.32	491.21	45.278	440.59	553.27	62.156	490.75	374.42	672.99	106.74	489.82	620.77	108.01	424.84	596.55	111.19	442.96	696.78	99.359	478.25	508.75	110.9	494.37	494.88	231.57	390.89	350	96.864	437.64	248.35	104.65	372.24	278.26	106.42	450.84	323.43	96.554	350.83	105.42	101.92	379.74	101.74	186.36	294.9	75.141	150.07	311.9	41.696	179.37	300.9	47.902	116.72	474.68	39.85	68.062	501.85	45.423	180.44	561.38	62.393	127.26	344.4	1479.6	309.58	264.72	1210.3	322.46
910	3.7875	495.85	1160.3	319.33	406.25	1418.4	486.2	407.33	1439	151.9	412.36	1736.7	336.3	412.48	945.88	431.11	422.71	943.88	198.27	225.22	1023.1	349.26	235.38	1025.5	255.46	326.87	873.96	504.56	316.29	876.81	122.28	337.8	1039.4	471.25	360.38	1046.7	169.49	203.52	989.05	299.47	376.84	679.66	517.67	487.78	614.52	506.75	417.87	597.79	508.08	453.01	703.04	514.39	489.28	512.63	508.51	475.53	497.69	382.85	397.09	346.11	527.84	443.58	270.22	515.35	379.94	271.63	528.83	461.54	346.48	519.31	340.95	104.13	510.59	374.16	110.71	431.43	291.27	65.393	463.26	305.74	38.979	437.38	294.39	41.353	498.59	466.43	32.701	557.32	491.21	45.274	440.59	553.27	62.149	490.75	374.42	672.98	106.74	489.83	620.76	108.01	424.84	596.54	111.19	442.97	696.77	99.354	478.26	508.74	110.9	494.38	494.88	231.57	390.9	350	96.863	437.64	248.34	104.66	372.24	278.26	106.42	450.84	323.43	96.556	350.83	105.42	101.92	379.74	101.73	186.36	294.9	75.143	150.07	311.9	41.696	179.37	300.9	47.903	116.72	474.68	39.85	68.062	501.85	45.42	180.45	561.38	62.389	127.26	344.39	1479.6	309.57	264.7	1210.3	322.45
